<?xml version="1.0" encoding="utf-8"?>
<!-- Generator: Adobe Illustrator 19.1.0, SVG Export Plug-In . SVG Version: 6.00 Build 0)  -->
<svg version="1.1" id="Layer_1" xmlns="http://www.w3.org/2000/svg" xmlns:xlink="http://www.w3.org/1999/xlink" x="0px" y="0px"
	 width="1024px" height="1024px" viewBox="0 0 1024 1024" style="enable-background:new 0 0 1024 1024;" xml:space="preserve">
<style type="text/css">
	.st0{fill:#FFFFFF;}
</style>
<g>
	<title>Layer 1</title>
	<g id="svg_1">
		<path class="st0" d="M771.6,541.7c1.3,144,126.3,191.9,127.7,192.5c-1.1,3.4-20,68.3-65.8,135.3c-39.7,58-80.8,115.7-145.6,116.9
			c-63.7,1.2-84.2-37.8-157-37.8c-72.8,0-95.6,36.6-155.9,38.9C312.4,990,264.7,925,224.8,867.2c-81.7-118.1-144.1-333.8-60.3-479.3
			c41.6-72.3,116.1-118.1,196.9-119.2c61.4-1.2,119.5,41.3,157,41.3c37.5,0,108-51.1,182.1-43.6c31,1.3,118.1,12.5,174,94.4
			C869.9,363.5,770.6,421.4,771.6,541.7 M651.9,188.2C685.1,148,707.5,92,701.4,36.3c-47.9,1.9-105.8,31.9-140.1,72.1
			c-30.8,35.6-57.7,92.6-50.5,147.2C564.2,259.7,618.7,228.5,651.9,188.2"/>
	</g>
</g>
</svg>
