<?xml version="1.0" encoding="utf-8"?>
<!-- Generator: Adobe Illustrator 19.1.0, SVG Export Plug-In . SVG Version: 6.00 Build 0)  -->
<svg version="1.1" id="Warstwa_1" xmlns="http://www.w3.org/2000/svg" xmlns:xlink="http://www.w3.org/1999/xlink" x="0px" y="0px"
	 width="176px" height="177px" viewBox="-423 424 176 177" style="enable-background:new -423 424 176 177;" xml:space="preserve">
<style type="text/css">
	.st0{fill:#FCFAFA;}
</style>
<path class="st0" d="M-259.6,520.6l-29.7,16.4l-27.1-25.1l25.3-24l31.5,17.5c0,0,6.1,2.7,6.1,7.1
	C-253.5,517.6-259.6,520.6-259.6,520.6z M-409.9,425.3c0.5-0.1,1.1-0.2,1.7-0.2c4.7,0,9.2,3.1,9.2,3.1l97.8,54.2l-21.7,23.6
	L-409.9,425.3z M-329.5,513l-80.2,87.4c-6.7-1.4-5.6-11.6-5.6-12.6V435.2c0,0-0.1-8.3,5.3-9.9L-329.5,513z M-301.4,543.6l-96.7,53.3
	c0,0-6.2,3.6-10.1,3.6c-0.5,0-1,0-1.5-0.1l85.7-81.4L-301.4,543.6z"/>
</svg>
