<?xml version="1.0" encoding="utf-8"?>
<!-- Generator: Adobe Illustrator 19.1.0, SVG Export Plug-In . SVG Version: 6.00 Build 0)  -->
<svg version="1.1" id="Layer_1" xmlns="http://www.w3.org/2000/svg" xmlns:xlink="http://www.w3.org/1999/xlink" x="0px" y="0px"
	 width="200px" height="200px" viewBox="-411 413 200 200" style="enable-background:new -411 413 200 200;" xml:space="preserve">
<style type="text/css">
	.st0{fill:#FFFFFF;stroke:#FFFFFF;stroke-width:2;stroke-miterlimit:10;}
</style>
<path class="st0" d="M-214.8,512.8L-214.8,512.8L-214.8,512.8c0.4-0.2,0.6-0.7,0.6-1.1l-18.5-50.9v-0.1v-0.1
	c-0.1-0.4-0.4-0.6-0.5-0.6c-0.4-0.2-0.5-0.2-0.5-0.2c-0.1,0-0.2,0-0.3,0l-34.1,13.4l-0.9,0.3l-0.8-0.5l-0.4-0.2
	c-22.5-12.4-30.7-15.6-33.6-16.1c-1-0.2-2.2-0.3-3.3-0.3c-2.6,0-6.9,0.4-12.6,2.6l-0.2,0.1h-0.2c-2.2,0.2-21.5,2.6-34.1,8.9
	l-0.9,0.5l-0.9-0.5c-6.2-3.2-12.8-7.2-19.4-11.9c-0.2-0.1-0.3-0.2-0.4-0.3c-0.4-0.1-0.7-0.2-1-0.2h-0.3c-0.2,0.1-0.4,0.2-0.5,0.4
	l-30,45.6c-0.2,0.2-0.2,0.5-0.2,0.8c0,0.2,0.1,0.4,0.4,0.6l0,0l0,0l37.9,27l1.3,0.9l-0.6,1.5c-1.1,2.5-1.2,5.1-0.2,7.3
	c1.9,4.4,6.9,6.7,9,7.5l1,0.4l0.2,1c1.7,6.9,5.7,8.4,8.8,8.4c1,0,1.7-0.1,2.2-0.3l1.8-0.7l0.8,1.7c2.1,4.6,5,7,8.5,7
	c1.1,0,2.4-0.3,3.4-0.7l1.3-0.6l1,1.1c2.5,2.8,5.5,4.4,8.8,4.9h0.1h0.1c0.3,0.1,0.7,0.1,1,0.1c2.3,0,3.5-0.9,4.2-1.6l0,0l0,0
	c1-1,1.4-2.3,1.7-3.5l0.7-2.9l2.4,1.7l6.6,4.6h0.1l0.1,0.1l0.1,0.1c0,0,4,2.5,8.2,2.5c1.2,0,2.3-0.2,3.2-0.6c1.7-0.7,3-2.1,3.8-3.9
	l0.5-1.2h1.3h1.1c2,0,5-0.4,7.6-2.1c2-1.4,3.5-3.5,4.3-6.4l0.4-1.3l1.4-0.1c2.3-0.2,5.6-0.9,8.1-3.3c1.9-1.7,3.1-4,3.5-6.8l0.3-1.7
	h1.7c2.3,0,5.5-0.5,8-2.7c2.3-2.1,3.3-5.1,3.2-9.3v-1.3l1.1-0.6L-214.8,512.8z M-359.3,542.8l-0.5,2.9l-2.5-1.5
	c-2.6-1.5-4.3-3.2-5-5c-0.8-1.8-0.7-3.8,0.3-6.1c2.3-4.9,5-7.4,7.8-7.4c1.7,0,3.6,1,5.5,3l1.2,1.3l-1.2,1.4
	C-355,533-358.4,537.4-359.3,542.8z M-346.4,553.1v2h-2c-0.2,0-0.5,0-0.7,0c-0.3,0-0.7,0.1-1,0.1l0,0l0,0c-2.6,0-5.9-1.5-7.1-8.4
	c-0.7-4.1,0.9-8.6,4.7-13.6l0.1-0.1l0.1-0.1l2.1-1.9c0.4-0.4,4.1-3.7,7.4-3.7c2.5,0,4.2,2.1,5.1,6.2l0.2,1l-0.7,0.8
	C-339.6,536.8-346.4,545.1-346.4,553.1z M-333.3,560.4l0.2,1.2l-0.9,0.7c-0.7,0.5-1.6,0.8-2.8,0.8c-3.1,0-5.6-2.6-7.5-7.7l-0.1-0.2
	V555c-1.5-7.9,7.2-18,8.2-19.2l0.3-0.4l0.4-0.2h0.1c0.6-0.2,1.7-0.7,3.1-0.7c1.7,0,4.2,0.7,6.4,3.8l1.3,1.8l-2,1.1
	c-1.2,0.7-2.1,1.4-2.9,2.4l0,0l0,0C-332.7,547.4-334.2,554-333.3,560.4z M-315.9,550.3l-1,12.1l0.1,0.1v0.5v0.2c0,1-0.4,2.5-1.3,3.5
	l-0.6,0.7h-0.7c-0.3,0.1-0.9,0.3-1.8,0.3h-0.7h-0.1h-0.1c-3.2-0.4-6.1-2.2-8.5-5.3v-0.1l-0.3-0.4l-0.1-0.5c-1.1-6.2,0.2-13,3.1-16.5
	c1.4-1.7,3-2.5,4.8-2.5c0.5,0,5,0.2,7,7.1l0.1,0.4L-315.9,550.3z M-250.9,532.4c-0.1,2.9-1,5-2.5,6.5c-2,1.8-4.9,2.2-7,2.2h-0.7
	h-0.8l-0.6-0.5l-22.9-20.7c-0.2-0.2-0.5-0.3-0.7-0.3c-0.4,0-0.6,0.2-0.7,0.3l0,0l0,0c-0.4,0.4-0.3,1,0.1,1.4l22.1,20l0.7,0.7l-0.1,1
	c-0.3,3.1-1.2,5.5-2.9,7.1c-1.8,1.7-4.3,2.6-7.4,2.8l-0.9,0.1l-0.6-0.6l-21.5-20.5c-0.1-0.1-0.2-0.2-0.7-0.2c-0.2,0-0.5,0-0.8,0.3
	c-0.3,0.4-0.3,1,0,1.3l20.8,19.9l0.8,0.8l-0.3,1.1c-0.6,2.7-1.8,4.7-3.6,6c-1.9,1.4-4.1,1.7-5.6,1.8l-0.9,0.1l-0.6-0.6
	c-0.2-0.2-0.3-0.3-0.3-0.4l-18.5-17.5c-0.3-0.3-0.6-0.3-0.8-0.3c-0.2,0-0.5,0-0.8,0.3c-0.3,0.4-0.3,1,0,1.3l16.3,15.5l0.9,0.9
	l-0.4,1.2l-0.1,0.2c-0.7,3.1-2.1,4.1-3.1,4.5h-0.1l-0.1,0.1c-0.7,0.3-1.6,0.4-2.4,0.4c-2.8,0-5.9-1.5-7.1-2.1l-0.1-0.1l-0.1-0.1
	l-9.4-6.6l-1-0.7l0.1-1.2l0.8-8.2v-0.1c-1.8-6.7-5.9-8.4-7.5-8.8l-0.9-0.2l-0.4-0.8c-2.8-5.8-6.7-7.1-9.4-7.1
	c-0.7,0-1.3,0.1-1.9,0.2l-1.7,0.2l-0.5-1.6c-1.6-5.1-4.5-6.2-6.6-6.2c-2.6,0-5.2,1.5-6.6,2.5l-1.4,1l-1.2-1.3
	c-2.4-2.6-4.7-3.8-7-3.9c-2.5,0.2-4.8,1.7-6.9,4.4l-1.2,1.5l-1.6-1.1l-35.1-25l-1.6-1.1l1.1-1.6l26.7-40.6l1.1-1.7l1.7,1.2
	c2.8,2,10.3,7,19.2,11.4c0.1,0.1,0.3,0.1,0.4,0.1s0.2,0,0.2,0l0.1-0.1l0.1-0.1c7.5-4.1,17.8-6.4,23.3-7.5l6.8-1.3l-5,4.7
	c-1.9,1.8-3.9,3.7-6.2,6.1c-8.3,8.6-5.5,13.5-4.8,14.6c2,2.3,4.8,3.5,7.9,3.5c8.4,0,18-8,19.1-8.9l0.5-0.4l0.6-0.1l7.3-0.8l1.7-0.2
	l0.5,1.6c1.9,6.8,6.5,12.7,13.7,17.7c5.6,3.9,11.2,6,13.4,6.8l0.4,0.2l0.3,0.3l23.4,23.4c0,0,0.1,0,0.1,0.1l1.2,0.6L-250.9,532.4z
	 M-249.8,528l-1.3,0.6l-1-1l-22.5-22.5c-0.1-0.1-0.2-0.2-0.6-0.3h-0.1c-3.9-1.3-23.5-8.8-26.7-25.5c-0.1-0.5-0.5-0.8-0.9-0.8h-0.2
	l-10.6,1.2c-0.3,0.1-0.5,0.1-0.7,0.2c-2.2,2.1-11.1,9.1-18.4,9.1c-2.7,0-4.8-0.9-6.3-2.7l-0.2-0.3l-0.1-0.3c-0.4-1-1.3-5,4.9-11.5
	c9.3-9.7,13.8-12.3,14.9-12.8l0.3-0.3h0.5c5.3-2,9.3-2.4,11.7-2.4c1,0,2,0.1,2.8,0.2l0,0l0,0c5.6,0.9,25,11.3,34.5,16.7
	c0.2,0.1,0.3,0.1,0.5,0.1c0.1,0,0.2,0,0.3,0l32.4-12.9l1.9-0.8l0.7,1.9l17.1,45.6l0.6,1.7l-1.6,0.8L-249.8,528z"/>
</svg>
